PathFileType	4	(X/Y/Z)	F:\sauvegarde_ddr\Cours_these\Recherche\DATA\2017_01_09_golf_025_TP\statique\statique02.trc
DataRate	CameraRate	NumFrames	NumMarkers	Units	OrigDataRate	OrigDataStartFrame	OrigNumFrames
100	100	4	88	m	100	139	242
Frame#	Time	OCCD			TMPD			C7			MAN			XYP			T8			T12			COTG			COTD			EASG			MTBassin			EPSG			EPSD			EASD			FHAG			FHPG			FBPG			FBAG			CLG			CMG			TFIBG			THAG			THPG			TBPG			TBAG			MLG			MMG			MT5G			MT1G			MTPG			CALG			MTCALG			FHAD			FHPD			FBPD			FBAD			CLD			CMD			TFIBD			THAD			THPD			TBPD			TBAD			MLD			MMD			MT5D			MT1D			MTPD			CALD			MTCALD			CLAVG			ACG			SCAPGL			SCAPGH			SCAPGB			BHAG			BHPG			BBPG			BBAG			ELG			EMG			MTRG			PSRG			PSUG			MC2G			MC5G			CLAVD			ACD			SCAPDL			SCAPDH			SCAPDB			BHAD			BHPD			BBPD			BBAD			ELD			EMD			MTRD			PSRD			PSUD			MC2D			MC5D			PATG			PATD			L5			TMPG			OCCG			MTTETE			
		X1	Y1	Z1	X2	Y2	Z2	X3	Y3	Z3	X4	Y4	Z4	X5	Y5	Z5	X6	Y6	Z6	X7	Y7	Z7	X8	Y8	Z8	X9	Y9	Z9	X10	Y10	Z10	X11	Y11	Z11	X12	Y12	Z12	X13	Y13	Z13	X14	Y14	Z14	X15	Y15	Z15	X16	Y16	Z16	X17	Y17	Z17	X18	Y18	Z18	X19	Y19	Z19	X20	Y20	Z20	X21	Y21	Z21	X22	Y22	Z22	X23	Y23	Z23	X24	Y24	Z24	X25	Y25	Z25	X26	Y26	Z26	X27	Y27	Z27	X28	Y28	Z28	X29	Y29	Z29	X30	Y30	Z30	X31	Y31	Z31	X32	Y32	Z32	X33	Y33	Z33	X34	Y34	Z34	X35	Y35	Z35	X36	Y36	Z36	X37	Y37	Z37	X38	Y38	Z38	X39	Y39	Z39	X40	Y40	Z40	X41	Y41	Z41	X42	Y42	Z42	X43	Y43	Z43	X44	Y44	Z44	X45	Y45	Z45	X46	Y46	Z46	X47	Y47	Z47	X48	Y48	Z48	X49	Y49	Z49	X50	Y50	Z50	X51	Y51	Z51	X52	Y52	Z52	X53	Y53	Z53	X54	Y54	Z54	X55	Y55	Z55	X56	Y56	Z56	X57	Y57	Z57	X58	Y58	Z58	X59	Y59	Z59	X60	Y60	Z60	X61	Y61	Z61	X62	Y62	Z62	X63	Y63	Z63	X64	Y64	Z64	X65	Y65	Z65	X66	Y66	Z66	X67	Y67	Z67	X68	Y68	Z68	X69	Y69	Z69	X70	Y70	Z70	X71	Y71	Z71	X72	Y72	Z72	X73	Y73	Z73	X74	Y74	Z74	X75	Y75	Z75	X76	Y76	Z76	X77	Y77	Z77	X78	Y78	Z78	X79	Y79	Z79	X80	Y80	Z80	X81	Y81	Z81	X82	Y82	Z82	X83	Y83	Z83	X84	Y84	Z84	X85	Y85	Z85	X86	Y86	Z86	X87	Y87	Z87	X88	Y88	Z88	
91	0.9100	0.015240	0.251034	1.848943	0.007350	0.307066	1.851478	-0.084485	0.136070	1.684990	-0.099623	0.276889	1.604651	-0.105546	0.316062	1.401374	-0.093451	0.075830	1.454213	-0.094939	0.097157	1.364264	-0.164586	0.319249	1.362830	-0.023454	0.317990	1.362804	-0.213683	0.289266	1.156383	0.066226	0.211079	1.223678	-0.143245	0.102308	1.211625	-0.046728	0.097611	1.207036	0.036601	0.284458	1.167427	-0.301104	0.268961	0.886743	-0.314607	0.192973	0.885735	-0.320074	0.186675	0.800803	-0.307895	0.262908	0.794697	-0.319490	0.144106	0.631079	-0.192919	0.172820	0.587990	-0.328960	0.158965	0.579940	-0.329853	0.173409	0.385227	-0.366253	0.108884	0.382121	-0.365384	0.088512	0.301649	-0.334131	0.166584	0.297429	-0.373492	0.102915	0.138461	-0.290850	0.152938	0.150604	-0.436241	0.230574	0.063129	-0.318856	0.273218	0.078937	-0.411153	0.193956	0.098621	-0.319727	0.047016	0.066603	-0.319333	0.054724	0.108398	0.125452	0.253758	0.901775	0.126698	0.156118	0.912971	0.135239	0.177182	0.819311	0.134826	0.243099	0.812631	0.142205	0.171394	0.622627	0.020184	0.185607	0.578154	0.147570	0.193362	0.561727	0.136280	0.186502	0.362683	0.188682	0.140967	0.364814	0.190670	0.128148	0.272471	0.122632	0.176790	0.267599	0.183261	0.107681	0.146607	0.098400	0.154191	0.154089	0.235191	0.246028	0.076994	0.125582	0.279447	0.081255	0.218076	0.203637	0.097272	0.130075	0.047925	0.068463	0.128215	0.055366	0.105922	-0.204327	0.220542	1.637176	-0.287025	0.154764	1.664277	-0.249044	0.108470	1.655084	-0.208161	0.087634	1.667328	-0.226016	0.068730	1.638540	-0.385181	0.133320	1.516286	-0.315998	0.082529	1.472888	-0.360787	0.081251	1.394449	-0.389005	0.107350	1.432448	-0.442537	0.115627	1.344648	-0.379053	0.150899	1.302768	-0.580355	0.193695	1.282749	-0.677189	0.206090	1.219829	-0.645051	0.198243	1.158040	-0.756595	0.203704	1.180341	-0.727378	0.231993	1.110337	0.004067	0.243831	1.625135	0.097462	0.191422	1.647488	0.069843	0.115170	1.633399	0.035530	0.093977	1.655602	0.045838	0.073315	1.624703	0.188325	0.155543	1.490419	0.146597	0.131544	1.465215	0.186379	0.137105	1.389010	0.249594	0.172905	1.418753	0.255209	0.160067	1.318157	0.188874	0.214725	1.281229	0.438257	0.264641	1.230393	0.480085	0.299756	1.202822	0.450714	0.285125	1.130558	0.558238	0.294294	1.161922	0.522784	0.310955	1.096933	-0.288989	0.229619	0.579439	0.096927	0.241249	0.569499	-0.091345	0.109359	1.254861	NaN	NaN	NaN	NaN	NaN	NaN	NaN	NaN	NaN	
92	0.9200	0.015250	0.250886	1.848969	0.007354	0.306911	1.851496	-0.084463	0.136029	1.684996	-0.099619	0.276825	1.604658	-0.105561	0.316032	1.401381	-0.093437	0.075792	1.454195	-0.094913	0.097148	1.364286	-0.164619	0.319219	1.362831	-0.023486	0.317965	1.362804	-0.213695	0.289256	1.156390	0.066219	0.211060	1.223679	-0.143235	0.102286	1.211628	-0.046717	0.097583	1.207042	0.036577	0.284448	1.167424	-0.301132	0.268959	0.886711	-0.314610	0.192964	0.885738	-0.320071	0.186641	0.800812	-0.307911	0.262886	0.794700	-0.319491	0.144104	0.631092	-0.192929	0.172825	0.587981	-0.328950	0.158920	0.579939	-0.329856	0.173372	0.385210	-0.366238	0.108841	0.382120	-0.365377	0.088499	0.301643	-0.334133	0.166549	0.297404	-0.373500	0.102932	0.138479	-0.290839	0.152939	0.150603	-0.436235	0.230568	0.063134	-0.318845	0.273201	0.078934	-0.411126	0.193953	0.098612	-0.319723	0.047008	0.066598	-0.319327	0.054716	0.108382	0.125424	0.253739	0.901756	0.126700	0.156106	0.912962	0.135252	0.177180	0.819293	0.134813	0.243102	0.812624	0.142195	0.171383	0.622632	0.020192	0.185554	0.578149	0.147562	0.193373	0.561737	0.136263	0.186512	0.362683	0.188680	0.140974	0.364810	0.190685	0.128137	0.272478	0.122625	0.176779	0.267597	0.183260	0.107666	0.146615	0.098405	0.154184	0.154089	0.235187	0.246040	0.076993	0.125579	0.279438	0.081255	0.218086	0.203654	0.097280	0.130144	0.047857	0.068523	0.128217	0.055365	0.105920	-0.204333	0.220486	1.637163	-0.287003	0.154680	1.664257	-0.249014	0.108382	1.655070	-0.208154	0.087630	1.667296	-0.225963	0.068632	1.638539	-0.385128	0.133256	1.516220	-0.315903	0.082449	1.472843	-0.360676	0.081194	1.394371	-0.388916	0.107277	1.432396	-0.442408	0.115522	1.344614	-0.378962	0.150865	1.302729	-0.580247	0.193630	1.282642	-0.677069	0.206040	1.219719	-0.644902	0.198189	1.157922	-0.756468	0.203691	1.180211	-0.727218	0.232009	1.110176	0.004057	0.243767	1.625126	0.097478	0.191378	1.647465	0.069872	0.115172	1.633362	0.035547	0.093890	1.655584	0.045858	0.073274	1.624639	0.188292	0.155531	1.490345	0.146576	0.131515	1.465170	0.186322	0.137075	1.388962	0.249536	0.172914	1.418635	0.255141	0.160052	1.318075	0.188766	0.214753	1.281188	0.438122	0.264611	1.230239	0.479951	0.299770	1.202642	0.450451	0.285419	1.130409	0.558105	0.294278	1.161683	0.522593	0.310932	1.096680	-0.288983	0.229585	0.579433	0.096913	0.241250	0.569494	-0.091314	0.109333	1.254882	NaN	NaN	NaN	NaN	NaN	NaN	NaN	NaN	NaN	
93	0.9300	0.015237	0.250741	1.848998	0.007401	0.306762	1.851537	-0.084476	0.135981	1.684977	-0.099629	0.276748	1.604653	-0.105589	0.316005	1.401384	-0.093455	0.075766	1.454187	-0.094942	0.097120	1.364277	-0.164644	0.319171	1.362833	-0.023510	0.317920	1.362795	-0.213713	0.289236	1.156373	0.066202	0.211046	1.223672	-0.143282	0.102302	1.211617	-0.046746	0.097579	1.207043	0.036575	0.284436	1.167416	-0.301143	0.268942	0.886757	-0.314637	0.192947	0.885728	-0.320088	0.186600	0.800787	-0.307932	0.262852	0.794692	-0.319497	0.144087	0.631092	-0.192931	0.172828	0.587970	-0.328978	0.158948	0.579942	-0.329857	0.173394	0.385208	-0.366258	0.108883	0.382116	-0.365381	0.088514	0.301634	-0.334124	0.166530	0.297404	-0.373517	0.102919	0.138474	-0.290837	0.152941	0.150597	-0.436240	0.230595	0.063145	-0.318849	0.273224	0.078936	-0.411155	0.193977	0.098629	-0.319735	0.047019	0.066613	-0.319324	0.054746	0.108395	0.125397	0.253745	0.901757	0.126692	0.156111	0.912964	0.135238	0.177178	0.819301	0.134795	0.243117	0.812613	0.142173	0.171388	0.622628	0.020067	0.185954	0.578237	0.147551	0.193368	0.561738	0.136273	0.186488	0.362680	0.188668	0.140986	0.364822	0.190674	0.128158	0.272473	0.122618	0.176787	0.267584	0.183267	0.107692	0.146618	0.098396	0.154173	0.154082	0.235188	0.246050	0.076993	0.125574	0.279436	0.081244	0.218080	0.203650	0.097284	0.130048	0.047993	0.068394	0.128199	0.055375	0.105920	-0.204287	0.220241	1.637161	-0.287017	0.154594	1.664238	-0.249021	0.108283	1.655055	-0.208146	0.087514	1.667282	-0.225977	0.068547	1.638513	-0.385101	0.133164	1.516191	-0.315862	0.082408	1.472787	-0.360591	0.081112	1.394342	-0.388890	0.107270	1.432324	-0.442347	0.115479	1.344554	-0.378878	0.150814	1.302686	-0.580165	0.193504	1.282548	-0.676980	0.205992	1.219615	-0.644801	0.198163	1.157820	-0.756380	0.203662	1.180083	-0.727119	0.231948	1.110101	0.004045	0.243704	1.625125	0.097482	0.191320	1.647432	0.069865	0.115112	1.633346	0.035553	0.093863	1.655561	0.045853	0.073215	1.624626	0.188253	0.155502	1.490301	0.146529	0.131503	1.465125	0.186241	0.137097	1.388903	0.249481	0.172916	1.418577	0.255027	0.160057	1.318011	0.188660	0.214794	1.281150	0.438011	0.264617	1.230086	0.479797	0.299795	1.202451	0.450278	0.285443	1.130249	0.557943	0.294258	1.161468	0.522411	0.310950	1.096473	-0.288976	0.229585	0.579433	0.096896	0.241245	0.569477	-0.091362	0.109321	1.254859	NaN	NaN	NaN	NaN	NaN	NaN	NaN	NaN	NaN	
94	0.9400	0.015274	0.250579	1.849006	0.007452	0.306624	1.851578	-0.084472	0.135869	1.684974	-0.099621	0.276658	1.604678	-0.105608	0.315961	1.401393	-0.093437	0.075679	1.454175	-0.094952	0.097082	1.364263	-0.164623	0.319124	1.362834	-0.023539	0.317875	1.362800	-0.213735	0.289201	1.156384	0.066204	0.211026	1.223663	-0.143276	0.102258	1.211613	-0.046737	0.097538	1.207044	0.036559	0.284426	1.167413	-0.301162	0.268894	0.886748	-0.314633	0.192897	0.885718	-0.320098	0.186585	0.800795	-0.307952	0.262846	0.794690	-0.319490	0.144064	0.631076	-0.192941	0.172800	0.587965	-0.328964	0.158874	0.579926	-0.329850	0.173348	0.385183	-0.366245	0.108814	0.382099	-0.365370	0.088453	0.301621	-0.334139	0.166508	0.297414	-0.373501	0.102873	0.138434	-0.290834	0.152928	0.150602	-0.436242	0.230551	0.063125	-0.318845	0.273191	0.078941	-0.411141	0.193963	0.098621	-0.319730	0.047000	0.066595	-0.319327	0.054714	0.108380	0.125393	0.253743	0.901759	0.126676	0.156088	0.912945	0.135215	0.177166	0.819291	0.134769	0.243101	0.812610	0.142169	0.171369	0.622623	0.020164	0.185551	0.578133	0.147533	0.193338	0.561738	0.136251	0.186473	0.362658	0.188660	0.140955	0.364819	0.190673	0.128142	0.272479	0.122616	0.176782	0.267585	0.183256	0.107675	0.146605	0.098403	0.154172	0.154072	0.235186	0.246037	0.076997	0.125579	0.279438	0.081252	0.218074	0.203649	0.097279	0.130086	0.047901	0.068464	0.128214	0.055345	0.105926	-0.204297	0.220177	1.637176	-0.286994	0.154475	1.664215	-0.248985	0.108167	1.655020	-0.208106	0.087382	1.667258	-0.225930	0.068444	1.638444	-0.385044	0.133010	1.516161	-0.315785	0.082336	1.472744	-0.360495	0.081059	1.394273	-0.388807	0.107155	1.432275	-0.442274	0.115444	1.344464	-0.378794	0.150772	1.302630	-0.580070	0.193390	1.282467	-0.676879	0.205866	1.219503	-0.644669	0.198049	1.157720	-0.756269	0.203550	1.179932	-0.726964	0.231886	1.109933	0.004044	0.243621	1.625132	0.097485	0.191258	1.647406	0.069865	0.115019	1.633339	0.035566	0.093797	1.655526	0.045971	0.072944	1.624634	0.188226	0.155444	1.490239	0.146502	0.131449	1.465063	0.186204	0.137071	1.388835	0.249422	0.172874	1.418513	0.254972	0.160015	1.317951	0.188574	0.214798	1.281100	0.437921	0.264601	1.229952	0.479699	0.299762	1.202287	0.450153	0.285402	1.130093	0.557826	0.294171	1.161271	0.522266	0.310913	1.096284	-0.289001	0.229558	0.579422	0.096884	0.241227	0.569490	-0.091352	0.109292	1.254837	NaN	NaN	NaN	NaN	NaN	NaN	NaN	NaN	NaN	
